<svg xmlns="http://www.w3.org/2000/svg" xmlns:xlink="http://www.w3.org/1999/xlink" viewBox="0 0 84 24"><path d="M 82.045 19.664 L 82.045 13.059 C 82.045 11.132 81.482 9.551 80.336 8.566 C 79.945 8.23 79.489 7.963 78.96 7.774 C 78.372 7.563 77.7 7.451 76.94 7.451 C 76.234 7.451 75.575 7.559 74.97 7.774 C 73.317 8.353 72.07 9.71 71.387 11.738 L 71.259 7.774 L 65.451 7.774 L 65.451 8.355 C 66.735 9.16 67.537 9.676 67.537 11.578 L 67.537 19.359 C 67.537 21.194 66.851 22.322 65.379 22.322 C 63.905 22.322 63.208 21.194 63.208 19.359 C 63.208 17.199 63.304 15.281 63.304 12.897 C 63.304 10.917 62.669 9.49 61.389 8.593 C 61.333 8.553 61.275 8.514 61.217 8.479 C 60.136 7.79 58.628 7.451 56.691 7.451 C 54.765 7.451 53.206 7.841 52.091 8.479 C 50.831 9.199 50.143 10.237 50.143 11.383 C 50.143 12.704 51.01 13.444 52.328 13.444 C 52.92 13.444 53.673 13.263 54.106 12.956 C 54.189 12.897 54.26 12.834 54.316 12.767 C 53.901 12.413 53.546 11.996 53.546 11.092 C 53.546 9.609 54.573 8.772 56.305 8.772 C 58.617 8.772 59.419 10.028 59.419 12.543 L 59.419 14.187 L 56.883 14.638 C 53.096 15.315 49.372 16.345 49.372 19.857 C 49.372 22.531 51.49 23.883 54.059 23.883 C 56.722 23.883 58.809 22.499 59.484 20.436 C 59.707 22.852 60.766 23.563 62.949 23.563 L 73.154 23.563 L 73.154 22.982 C 71.773 22.049 71.389 21.791 71.389 19.662 L 71.389 15.185 C 71.389 11.769 73.122 10.028 75.24 10.028 C 77.392 10.028 78.194 11.641 78.194 13.606 L 78.194 19.664 C 78.194 21.791 77.809 22.049 76.429 22.984 L 76.429 23.565 L 83.81 23.565 L 83.81 22.984 C 82.432 22.049 82.045 21.791 82.045 19.664 Z M 59.421 17.119 C 59.421 20.212 57.656 21.824 55.764 21.824 C 54.189 21.824 53.26 20.923 53.26 19.31 C 53.26 17.184 54.64 16.345 57.368 15.766 L 59.423 15.315 L 59.423 17.119 Z M 20.685 4.84 C 22.066 4.84 23.156 3.777 23.156 2.425 C 23.156 1.072 22.063 0.007 20.685 0.007 C 19.304 0.007 18.245 1.07 18.245 2.425 C 18.245 3.777 19.304 4.84 20.685 4.84 Z M 48.508 22.982 L 48.508 23.563 L 41.126 23.563 L 41.126 22.982 C 42.507 22.049 42.891 21.791 42.891 19.662 L 42.891 11.664 C 42.891 10.542 42.836 9.01 41.544 9.01 C 40.041 9.01 39.21 10.905 38.881 11.576 L 32.881 23.886 L 32.624 23.886 L 31.954 22.506 L 28.529 15.459 L 26.8 11.899 C 25.756 9.726 25.059 9.026 24.025 8.355 L 24.025 7.774 L 31.053 7.774 L 31.053 8.355 C 30.282 8.934 30.07 9.194 30.07 9.708 C 30.07 10.159 30.296 10.737 30.68 11.578 L 31.956 14.234 L 34.007 18.505 L 37.085 11.771 C 37.472 10.932 37.599 10.515 37.599 10.096 C 37.599 9.45 37.023 8.936 36.124 8.355 L 36.124 7.774 L 46.747 7.774 L 46.747 19.664 C 46.745 21.791 47.129 22.049 48.508 22.982 Z M 24.536 22.982 L 24.536 23.563 L 17.155 23.563 L 17.155 22.982 C 18.536 22.049 18.92 21.791 18.92 19.662 L 18.92 11.664 C 18.92 10.542 18.864 9.01 17.573 9.01 C 16.069 9.01 15.238 10.905 14.91 11.576 L 8.909 23.886 L 8.652 23.886 L 7.982 22.506 L 4.557 15.459 L 2.828 11.899 C 1.785 9.726 1.088 9.026 0.054 8.355 L 0.054 7.774 L 7.082 7.774 L 7.082 8.355 C 6.311 8.934 6.099 9.194 6.099 9.708 C 6.099 10.159 6.325 10.737 6.709 11.578 L 7.984 14.234 L 10.035 18.505 L 13.114 11.771 C 13.5 10.932 13.628 10.515 13.628 10.096 C 13.628 9.45 13.051 8.936 12.153 8.355 L 12.153 7.774 L 22.776 7.774 L 22.776 19.664 C 22.772 21.791 23.156 22.049 24.536 22.982 Z M 44.659 4.84 C 46.039 4.84 47.129 3.777 47.129 2.425 C 47.129 1.072 46.037 0.007 44.659 0.007 C 43.278 0.007 42.219 1.07 42.219 2.425 C 42.219 3.777 43.278 4.84 44.659 4.84 Z" fill="rgb(18,78,59)"></path></svg>